{
	"asset":{
		"generator":"Khronos glTF Blender I/O v4.2.60",
		"version":"2.0"
	},
	"scene":0,
	"scenes":[
		{
			"name":"Scene",
			"nodes":[
				0,
				1
			]
		}
	],
	"nodes":[
		{
			"mesh":0,
			"name":"ImageRef__1_",
			"rotation":[
				0,
				0,
				-1,
				1.2300169461795536e-14
			],
			"scale":[
				0.003000000026077032,
				1.5000004168541636e-05,
				0.003000000724568963
			],
			"translation":[
				0.000872136908583343,
				0,
				0.020064247772097588
			]
		},
		{
			"mesh":1,
			"name":"HandlesBike_V2",
			"rotation":[
				0.0028445895295590162,
				-0.7071011066436768,
				-0.7071009874343872,
				0.0028446512296795845
			],
			"scale":[
				0.8000001311302185,
				0.7999999523162842,
				0.7999998927116394
			],
			"translation":[
				0.00087214563973248,
				0,
				0.12006424367427826
			]
		}
	],
	"materials":[
		{
			"doubleSided":true,
			"name":"Black.001",
			"pbrMetallicRoughness":{
				"baseColorFactor":[
					0,
					0,
					0,
					1
				],
				"metallicFactor":0,
				"roughnessFactor":0.5527864098548889
			}
		},
		{
			"doubleSided":true,
			"name":"White",
			"pbrMetallicRoughness":{
				"baseColorFactor":[
					0.9339622855186462,
					0.9339622855186462,
					0.9339622855186462,
					1
				],
				"metallicFactor":0,
				"roughnessFactor":0.5527864098548889
			}
		},
		{
			"doubleSided":true,
			"name":"GreenIsh",
			"pbrMetallicRoughness":{
				"baseColorFactor":[
					0.07880913466215134,
					0.21698102355003357,
					0.08392658084630966,
					1
				],
				"metallicFactor":0,
				"roughnessFactor":0.5527864098548889
			}
		}
	],
	"meshes":[
		{
			"name":"Scene.015",
			"primitives":[
				{
					"attributes":{
						"POSITION":0,
						"NORMAL":1,
						"TEXCOORD_0":2
					},
					"indices":3,
					"material":0
				}
			]
		},
		{
			"name":"Scene.016",
			"primitives":[
				{
					"attributes":{
						"POSITION":4,
						"NORMAL":5,
						"TEXCOORD_0":6
					},
					"indices":7,
					"material":1
				},
				{
					"attributes":{
						"POSITION":8,
						"NORMAL":9,
						"TEXCOORD_0":10
					},
					"indices":11,
					"material":2
				},
				{
					"attributes":{
						"POSITION":12,
						"NORMAL":13,
						"TEXCOORD_0":14
					},
					"indices":15,
					"material":0
				}
			]
		}
	],
	"accessors":[
		{
			"bufferView":0,
			"componentType":5126,
			"count":4,
			"max":[
				50,
				3.0616168932349032e-15,
				50
			],
			"min":[
				-50,
				-3.0616168932349032e-15,
				-50
			],
			"type":"VEC3"
		},
		{
			"bufferView":1,
			"componentType":5126,
			"count":4,
			"type":"VEC3"
		},
		{
			"bufferView":2,
			"componentType":5126,
			"count":4,
			"type":"VEC2"
		},
		{
			"bufferView":3,
			"componentType":5123,
			"count":6,
			"type":"SCALAR"
		},
		{
			"bufferView":4,
			"componentType":5126,
			"count":234,
			"max":[
				0.13809309899806976,
				-0.06368741393089294,
				0.13880303502082825
			],
			"min":[
				-0.1400362253189087,
				-0.20148076117038727,
				-0.001112191821448505
			],
			"type":"VEC3"
		},
		{
			"bufferView":5,
			"componentType":5126,
			"count":234,
			"type":"VEC3"
		},
		{
			"bufferView":6,
			"componentType":5126,
			"count":234,
			"type":"VEC2"
		},
		{
			"bufferView":7,
			"componentType":5123,
			"count":378,
			"type":"SCALAR"
		},
		{
			"bufferView":8,
			"componentType":5126,
			"count":2031,
			"max":[
				0.41605135798454285,
				0.04339942708611488,
				0.39660030603408813
			],
			"min":[
				-0.4165341556072235,
				-0.362660676240921,
				-0.0011792470468208194
			],
			"type":"VEC3"
		},
		{
			"bufferView":9,
			"componentType":5126,
			"count":2031,
			"type":"VEC3"
		},
		{
			"bufferView":10,
			"componentType":5126,
			"count":2031,
			"type":"VEC2"
		},
		{
			"bufferView":11,
			"componentType":5123,
			"count":2742,
			"type":"SCALAR"
		},
		{
			"bufferView":12,
			"componentType":5126,
			"count":3156,
			"max":[
				0.41521313786506653,
				0.046119946986436844,
				0.39833322167396545
			],
			"min":[
				-0.4170665442943573,
				-0.30591896176338196,
				-0.0011642267927527428
			],
			"type":"VEC3"
		},
		{
			"bufferView":13,
			"componentType":5126,
			"count":3156,
			"type":"VEC3"
		},
		{
			"bufferView":14,
			"componentType":5126,
			"count":3156,
			"type":"VEC2"
		},
		{
			"bufferView":15,
			"componentType":5123,
			"count":3888,
			"type":"SCALAR"
		}
	],
	"bufferViews":[
		{
			"buffer":0,
			"byteLength":48,
			"byteOffset":0,
			"target":34962
		},
		{
			"buffer":0,
			"byteLength":48,
			"byteOffset":48,
			"target":34962
		},
		{
			"buffer":0,
			"byteLength":32,
			"byteOffset":96,
			"target":34962
		},
		{
			"buffer":0,
			"byteLength":12,
			"byteOffset":128,
			"target":34963
		},
		{
			"buffer":0,
			"byteLength":2808,
			"byteOffset":140,
			"target":34962
		},
		{
			"buffer":0,
			"byteLength":2808,
			"byteOffset":2948,
			"target":34962
		},
		{
			"buffer":0,
			"byteLength":1872,
			"byteOffset":5756,
			"target":34962
		},
		{
			"buffer":0,
			"byteLength":756,
			"byteOffset":7628,
			"target":34963
		},
		{
			"buffer":0,
			"byteLength":24372,
			"byteOffset":8384,
			"target":34962
		},
		{
			"buffer":0,
			"byteLength":24372,
			"byteOffset":32756,
			"target":34962
		},
		{
			"buffer":0,
			"byteLength":16248,
			"byteOffset":57128,
			"target":34962
		},
		{
			"buffer":0,
			"byteLength":5484,
			"byteOffset":73376,
			"target":34963
		},
		{
			"buffer":0,
			"byteLength":37872,
			"byteOffset":78860,
			"target":34962
		},
		{
			"buffer":0,
			"byteLength":37872,
			"byteOffset":116732,
			"target":34962
		},
		{
			"buffer":0,
			"byteLength":25248,
			"byteOffset":154604,
			"target":34962
		},
		{
			"buffer":0,
			"byteLength":7776,
			"byteOffset":179852,
			"target":34963
		}
	],
	"buffers":[
		{
			"byteLength":187628,
			"uri":"BikeHandlesNew.bin"
		}
	]
}
