{
	"asset":{
		"generator":"Khronos glTF Blender I/O v4.2.60",
		"version":"2.0"
	},
	"scene":0,
	"scenes":[
		{
			"name":"Scene",
			"nodes":[
				0,
				1,
				6,
				7,
				8,
				9,
				10,
				11,
				12
			]
		}
	],
	"nodes":[
		{
			"mesh":0,
			"name":"SpeedText.001",
			"rotation":[
				0,
				-0.7071068286895752,
				0.7071068286895752,
				1.1520234011186403e-07
			],
			"scale":[
				0.00028380798175930977,
				0.0007095199543982744,
				0.00028380798175930977
			],
			"translation":[
				-0.12779997289180756,
				0.17536255717277527,
				0.010953987948596478
			]
		},
		{
			"mesh":1,
			"name":"BackPlateSimple",
			"rotation":[
				0,
				-0.70710688829422,
				0.7071066498756409,
				1.152023116901546e-07
			],
			"scale":[
				0.05979802459478378,
				0.06317802518606186,
				0.061292633414268494
			],
			"translation":[
				0,
				0.019168084487318993,
				0.006546501070261002
			]
		},
		{
			"mesh":2,
			"name":"Cube_005.001",
			"rotation":[
				0.5000000596046448,
				-0.5000000596046448,
				-0.4999999701976776,
				0.5
			],
			"scale":[
				0.13859260082244873,
				0.057273585349321365,
				0.3346283435821533
			],
			"translation":[
				0.053150322288274765,
				-0.9760363698005676,
				0
			]
		},
		{
			"mesh":3,
			"name":"Cube_006.001",
			"rotation":[
				0.7069846987724304,
				0,
				0,
				0.7072288393974304
			],
			"scale":[
				0.31698912382125854,
				0.057273585349321365,
				0.334628164768219
			],
			"translation":[
				-0.40522560477256775,
				0.025167737156152725,
				0
			]
		},
		{
			"mesh":4,
			"name":"Cube_007.001",
			"rotation":[
				0.5000000596046448,
				-0.5000000596046448,
				-0.4999999701976776,
				0.5
			],
			"scale":[
				0.3169889748096466,
				0.057273585349321365,
				0.33462831377983093
			],
			"translation":[
				0.05225839838385582,
				0.0429251566529274,
				0
			]
		},
		{
			"mesh":5,
			"name":"Plane_008_Material_001_0_001.001",
			"scale":[
				0.11488237977027893,
				0.3346281945705414,
				0.3346281945705414
			]
		},
		{
			"children":[
				2,
				3,
				4,
				5
			],
			"name":"LeftArrow.001",
			"rotation":[
				0.00017469585873186588,
				0,
				0,
				1
			],
			"scale":[
				0.022744886577129364,
				0.02274489402770996,
				0.027629179880023003
			],
			"translation":[
				0.08074155449867249,
				0.1876295655965805,
				0.012297218665480614
			]
		},
		{
			"name":"StraightArrow.001",
			"rotation":[
				0.00012209101987536997,
				0.00012221460929140449,
				-0.7071066498756409,
				0.70710688829422
			],
			"scale":[
				0.022744890302419662,
				0.022744888439774513,
				0.027629174292087555
			],
			"translation":[
				0.07130242884159088,
				0.17534731328487396,
				0.012292982079088688
			]
		},
		{
			"mesh":6,
			"name":"DistanceDirectionsText__1_",
			"rotation":[
				0,
				-0.70710688829422,
				0.7071066498756409,
				1.1520231879558196e-07
			],
			"scale":[
				9.598398901289329e-05,
				0.0007826986839063466,
				0.00012188444088678807
			],
			"translation":[
				0.08090082556009293,
				0.1320178359746933,
				0.012184753082692623
			]
		},
		{
			"mesh":7,
			"name":"DistanceDirectionsText__2_",
			"rotation":[
				0,
				-0.70710688829422,
				0.7071066498756409,
				1.1520231879558196e-07
			],
			"scale":[
				0.0001059422647813335,
				0.0008639031439088285,
				0.00013452988059725612
			],
			"translation":[
				-0.07678715139627457,
				0.14758096635341644,
				0.012184808030724525
			]
		},
		{
			"mesh":8,
			"name":"MiddleSeperator.002",
			"rotation":[
				0,
				-1,
				0.00017255544662475586,
				1.6292068494294654e-07
			],
			"scale":[
				0.006914420984685421,
				0.061498310416936874,
				0.007872897200286388
			],
			"translation":[
				0,
				0.165825754404068,
				0.005758088547736406
			]
		},
		{
			"mesh":9,
			"name":"SideBars_Simple_001",
			"rotation":[
				-0.49999985098838806,
				-0.5,
				0.5,
				0.5000001192092896
			],
			"scale":[
				0.05999999865889549,
				0.05999999865889549,
				0.05999999865889549
			],
			"translation":[
				-0.15291482210159302,
				0.16852737963199615,
				0.005758126266300678
			]
		},
		{
			"mesh":10,
			"name":"SideBars_Simple_1",
			"rotation":[
				-0.49999985098838806,
				-0.5,
				0.5,
				0.5000001192092896
			],
			"scale":[
				0.05999999865889549,
				0.05999999865889549,
				0.05999999865889549
			],
			"translation":[
				0.14953137934207916,
				0.1676335632801056,
				0.007602042518556118
			]
		}
	],
	"materials":[
		{
			"doubleSided":true,
			"name":"White.002",
			"pbrMetallicRoughness":{
				"baseColorFactor":[
					0.9339622855186462,
					0.9339622855186462,
					0.9339622855186462,
					1
				],
				"metallicFactor":0,
				"roughnessFactor":0.5527864098548889
			}
		},
		{
			"alphaMode":"BLEND",
			"doubleSided":true,
			"name":"Translucent",
			"pbrMetallicRoughness":{
				"baseColorFactor":[
					0.22465258836746216,
					0.22465258836746216,
					0.22465258836746216,
					0.33212995529174805
				],
				"metallicFactor":0,
				"roughnessFactor":0.5
			}
		},
		{
			"doubleSided":true,
			"name":"Blue.001",
			"pbrMetallicRoughness":{
				"baseColorFactor":[
					0,
					0.7567787170410156,
					1,
					1
				],
				"metallicFactor":0,
				"roughnessFactor":0.5527864098548889
			}
		},
		{
			"doubleSided":true,
			"name":"TransWhite.001",
			"pbrMetallicRoughness":{
				"metallicFactor":0,
				"roughnessFactor":0.5527864098548889
			}
		}
	],
	"meshes":[
		{
			"name":"Scene.025",
			"primitives":[
				{
					"attributes":{
						"POSITION":0,
						"NORMAL":1,
						"TEXCOORD_0":2
					},
					"indices":3,
					"material":0
				}
			]
		},
		{
			"name":"Scene.026",
			"primitives":[
				{
					"attributes":{
						"POSITION":4,
						"NORMAL":5,
						"TEXCOORD_0":6
					},
					"indices":7,
					"material":1
				}
			]
		},
		{
			"name":"Scene.056",
			"primitives":[
				{
					"attributes":{
						"POSITION":8,
						"NORMAL":9,
						"TEXCOORD_0":10
					},
					"indices":11,
					"material":2
				}
			]
		},
		{
			"name":"Scene.057",
			"primitives":[
				{
					"attributes":{
						"POSITION":12,
						"NORMAL":13,
						"TEXCOORD_0":14
					},
					"indices":15,
					"material":2
				}
			]
		},
		{
			"name":"Scene.058",
			"primitives":[
				{
					"attributes":{
						"POSITION":16,
						"NORMAL":17,
						"TEXCOORD_0":18
					},
					"indices":19,
					"material":2
				}
			]
		},
		{
			"name":"Scene.055",
			"primitives":[
				{
					"attributes":{
						"POSITION":20,
						"NORMAL":21,
						"TEXCOORD_0":22
					},
					"indices":23,
					"material":2
				}
			]
		},
		{
			"name":"Scene.059",
			"primitives":[
				{
					"attributes":{
						"POSITION":24,
						"NORMAL":25,
						"TEXCOORD_0":26
					},
					"indices":27,
					"material":0
				}
			]
		},
		{
			"name":"Scene.060",
			"primitives":[
				{
					"attributes":{
						"POSITION":28,
						"NORMAL":29,
						"TEXCOORD_0":30
					},
					"indices":31,
					"material":0
				}
			]
		},
		{
			"name":"Scene.045",
			"primitives":[
				{
					"attributes":{
						"POSITION":32,
						"NORMAL":33,
						"TEXCOORD_0":34
					},
					"indices":35,
					"material":3
				}
			]
		},
		{
			"name":"Scene.062",
			"primitives":[
				{
					"attributes":{
						"POSITION":36,
						"NORMAL":37,
						"TEXCOORD_0":38
					},
					"indices":39,
					"material":3
				}
			]
		},
		{
			"name":"Scene.061",
			"primitives":[
				{
					"attributes":{
						"POSITION":40,
						"NORMAL":41,
						"TEXCOORD_0":42
					},
					"indices":43,
					"material":3
				}
			]
		}
	],
	"accessors":[
		{
			"bufferView":0,
			"componentType":5126,
			"count":296,
			"max":[
				-49.312503814697266,
				4.8000030517578125,
				38.86607360839844
			],
			"min":[
				-295.6250305175781,
				-3.33955040332512e-06,
				-51.13393020629883
			],
			"type":"VEC3"
		},
		{
			"bufferView":1,
			"componentType":5126,
			"count":296,
			"type":"VEC3"
		},
		{
			"bufferView":2,
			"componentType":5126,
			"count":296,
			"type":"VEC2"
		},
		{
			"bufferView":3,
			"componentType":5123,
			"count":720,
			"type":"SCALAR"
		},
		{
			"bufferView":4,
			"componentType":5126,
			"count":48,
			"max":[
				2.657454490661621,
				0.11616048961877823,
				-1.520369291305542
			],
			"min":[
				-2.667409896850586,
				-2.2210318206816737e-07,
				-3.300445795059204
			],
			"type":"VEC3"
		},
		{
			"bufferView":5,
			"componentType":5126,
			"count":48,
			"type":"VEC3"
		},
		{
			"bufferView":6,
			"componentType":5126,
			"count":48,
			"type":"VEC2"
		},
		{
			"bufferView":7,
			"componentType":5123,
			"count":84,
			"type":"SCALAR"
		},
		{
			"bufferView":8,
			"componentType":5126,
			"count":108,
			"max":[
				6.1999993324279785,
				2,
				1
			],
			"min":[
				-1,
				0,
				-1
			],
			"type":"VEC3"
		},
		{
			"bufferView":9,
			"componentType":5126,
			"count":108,
			"type":"VEC3"
		},
		{
			"bufferView":10,
			"componentType":5126,
			"count":108,
			"type":"VEC2"
		},
		{
			"bufferView":11,
			"componentType":5123,
			"count":180,
			"type":"SCALAR"
		},
		{
			"bufferView":12,
			"componentType":5126,
			"count":50,
			"max":[
				2.499300241470337,
				2,
				1
			],
			"min":[
				-1,
				0,
				-1
			],
			"type":"VEC3"
		},
		{
			"bufferView":13,
			"componentType":5126,
			"count":50,
			"type":"VEC3"
		},
		{
			"bufferView":14,
			"componentType":5126,
			"count":50,
			"type":"VEC2"
		},
		{
			"bufferView":15,
			"componentType":5123,
			"count":96,
			"type":"SCALAR"
		},
		{
			"bufferView":16,
			"componentType":5126,
			"count":53,
			"max":[
				2.4992997646331787,
				1.999999761581421,
				0.9999998807907104
			],
			"min":[
				0.6743012070655823,
				0,
				-0.9999998807907104
			],
			"type":"VEC3"
		},
		{
			"bufferView":17,
			"componentType":5126,
			"count":53,
			"type":"VEC3"
		},
		{
			"bufferView":18,
			"componentType":5126,
			"count":53,
			"type":"VEC2"
		},
		{
			"bufferView":19,
			"componentType":5123,
			"count":102,
			"type":"SCALAR"
		},
		{
			"bufferView":20,
			"componentType":5126,
			"count":30,
			"max":[
				-4.613702297210693,
				2.7704873085021973,
				0.39386624097824097
			],
			"min":[
				-12.491241455078125,
				-2.863210439682007,
				0.0016392468241974711
			],
			"type":"VEC3"
		},
		{
			"bufferView":21,
			"componentType":5126,
			"count":30,
			"type":"VEC3"
		},
		{
			"bufferView":22,
			"componentType":5126,
			"count":30,
			"type":"VEC2"
		},
		{
			"bufferView":23,
			"componentType":5123,
			"count":42,
			"type":"SCALAR"
		},
		{
			"bufferView":24,
			"componentType":5126,
			"count":458,
			"max":[
				217.99998474121094,
				4.8000030517578125,
				38.86607360839844
			],
			"min":[
				-224.18751525878906,
				-3.920911240129499e-06,
				-51.13393020629883
			],
			"type":"VEC3"
		},
		{
			"bufferView":25,
			"componentType":5126,
			"count":458,
			"type":"VEC3"
		},
		{
			"bufferView":26,
			"componentType":5126,
			"count":458,
			"type":"VEC2"
		},
		{
			"bufferView":27,
			"componentType":5123,
			"count":1176,
			"type":"SCALAR"
		},
		{
			"bufferView":28,
			"componentType":5126,
			"count":286,
			"max":[
				180.4375,
				4.8000030517578125,
				38.86607360839844
			],
			"min":[
				-186.1875,
				-3.920911240129499e-06,
				-57.38393020629883
			],
			"type":"VEC3"
		},
		{
			"bufferView":29,
			"componentType":5126,
			"count":286,
			"type":"VEC3"
		},
		{
			"bufferView":30,
			"componentType":5126,
			"count":286,
			"type":"VEC2"
		},
		{
			"bufferView":31,
			"componentType":5123,
			"count":564,
			"type":"SCALAR"
		},
		{
			"bufferView":32,
			"componentType":5126,
			"count":96,
			"max":[
				1.000000238418579,
				1,
				1
			],
			"min":[
				-1.000000238418579,
				-1,
				-1
			],
			"type":"VEC3"
		},
		{
			"bufferView":33,
			"componentType":5126,
			"count":96,
			"type":"VEC3"
		},
		{
			"bufferView":34,
			"componentType":5126,
			"count":96,
			"type":"VEC2"
		},
		{
			"bufferView":35,
			"componentType":5123,
			"count":156,
			"type":"SCALAR"
		},
		{
			"bufferView":36,
			"componentType":5126,
			"count":62,
			"max":[
				0.7560756206512451,
				0.1999998688697815,
				0.19738292694091797
			],
			"min":[
				-0.7560756206512451,
				-0.2000001221895218,
				-0.31427842378616333
			],
			"type":"VEC3"
		},
		{
			"bufferView":37,
			"componentType":5126,
			"count":62,
			"type":"VEC3"
		},
		{
			"bufferView":38,
			"componentType":5126,
			"count":62,
			"type":"VEC2"
		},
		{
			"bufferView":39,
			"componentType":5123,
			"count":96,
			"type":"SCALAR"
		},
		{
			"bufferView":40,
			"componentType":5126,
			"count":62,
			"max":[
				0.7709726691246033,
				0.23073343932628632,
				0.2578868865966797
			],
			"min":[
				-0.7411785125732422,
				-0.16926655173301697,
				-0.25377464294433594
			],
			"type":"VEC3"
		},
		{
			"bufferView":41,
			"componentType":5126,
			"count":62,
			"type":"VEC3"
		},
		{
			"bufferView":42,
			"componentType":5126,
			"count":62,
			"type":"VEC2"
		},
		{
			"bufferView":43,
			"componentType":5123,
			"count":96,
			"type":"SCALAR"
		}
	],
	"bufferViews":[
		{
			"buffer":0,
			"byteLength":3552,
			"byteOffset":0,
			"target":34962
		},
		{
			"buffer":0,
			"byteLength":3552,
			"byteOffset":3552,
			"target":34962
		},
		{
			"buffer":0,
			"byteLength":2368,
			"byteOffset":7104,
			"target":34962
		},
		{
			"buffer":0,
			"byteLength":1440,
			"byteOffset":9472,
			"target":34963
		},
		{
			"buffer":0,
			"byteLength":576,
			"byteOffset":10912,
			"target":34962
		},
		{
			"buffer":0,
			"byteLength":576,
			"byteOffset":11488,
			"target":34962
		},
		{
			"buffer":0,
			"byteLength":384,
			"byteOffset":12064,
			"target":34962
		},
		{
			"buffer":0,
			"byteLength":168,
			"byteOffset":12448,
			"target":34963
		},
		{
			"buffer":0,
			"byteLength":1296,
			"byteOffset":12616,
			"target":34962
		},
		{
			"buffer":0,
			"byteLength":1296,
			"byteOffset":13912,
			"target":34962
		},
		{
			"buffer":0,
			"byteLength":864,
			"byteOffset":15208,
			"target":34962
		},
		{
			"buffer":0,
			"byteLength":360,
			"byteOffset":16072,
			"target":34963
		},
		{
			"buffer":0,
			"byteLength":600,
			"byteOffset":16432,
			"target":34962
		},
		{
			"buffer":0,
			"byteLength":600,
			"byteOffset":17032,
			"target":34962
		},
		{
			"buffer":0,
			"byteLength":400,
			"byteOffset":17632,
			"target":34962
		},
		{
			"buffer":0,
			"byteLength":192,
			"byteOffset":18032,
			"target":34963
		},
		{
			"buffer":0,
			"byteLength":636,
			"byteOffset":18224,
			"target":34962
		},
		{
			"buffer":0,
			"byteLength":636,
			"byteOffset":18860,
			"target":34962
		},
		{
			"buffer":0,
			"byteLength":424,
			"byteOffset":19496,
			"target":34962
		},
		{
			"buffer":0,
			"byteLength":204,
			"byteOffset":19920,
			"target":34963
		},
		{
			"buffer":0,
			"byteLength":360,
			"byteOffset":20124,
			"target":34962
		},
		{
			"buffer":0,
			"byteLength":360,
			"byteOffset":20484,
			"target":34962
		},
		{
			"buffer":0,
			"byteLength":240,
			"byteOffset":20844,
			"target":34962
		},
		{
			"buffer":0,
			"byteLength":84,
			"byteOffset":21084,
			"target":34963
		},
		{
			"buffer":0,
			"byteLength":5496,
			"byteOffset":21168,
			"target":34962
		},
		{
			"buffer":0,
			"byteLength":5496,
			"byteOffset":26664,
			"target":34962
		},
		{
			"buffer":0,
			"byteLength":3664,
			"byteOffset":32160,
			"target":34962
		},
		{
			"buffer":0,
			"byteLength":2352,
			"byteOffset":35824,
			"target":34963
		},
		{
			"buffer":0,
			"byteLength":3432,
			"byteOffset":38176,
			"target":34962
		},
		{
			"buffer":0,
			"byteLength":3432,
			"byteOffset":41608,
			"target":34962
		},
		{
			"buffer":0,
			"byteLength":2288,
			"byteOffset":45040,
			"target":34962
		},
		{
			"buffer":0,
			"byteLength":1128,
			"byteOffset":47328,
			"target":34963
		},
		{
			"buffer":0,
			"byteLength":1152,
			"byteOffset":48456,
			"target":34962
		},
		{
			"buffer":0,
			"byteLength":1152,
			"byteOffset":49608,
			"target":34962
		},
		{
			"buffer":0,
			"byteLength":768,
			"byteOffset":50760,
			"target":34962
		},
		{
			"buffer":0,
			"byteLength":312,
			"byteOffset":51528,
			"target":34963
		},
		{
			"buffer":0,
			"byteLength":744,
			"byteOffset":51840,
			"target":34962
		},
		{
			"buffer":0,
			"byteLength":744,
			"byteOffset":52584,
			"target":34962
		},
		{
			"buffer":0,
			"byteLength":496,
			"byteOffset":53328,
			"target":34962
		},
		{
			"buffer":0,
			"byteLength":192,
			"byteOffset":53824,
			"target":34963
		},
		{
			"buffer":0,
			"byteLength":744,
			"byteOffset":54016,
			"target":34962
		},
		{
			"buffer":0,
			"byteLength":744,
			"byteOffset":54760,
			"target":34962
		},
		{
			"buffer":0,
			"byteLength":496,
			"byteOffset":55504,
			"target":34962
		},
		{
			"buffer":0,
			"byteLength":192,
			"byteOffset":56000,
			"target":34963
		}
	],
	"buffers":[
		{
			"byteLength":56192,
			"uri":"SimpleUI.bin"
		}
	]
}
